<mxfile host="Electron" agent="Mozilla/5.0 (Windows NT 10.0; Win64; x64) AppleWebKit/537.36 (KHTML, like Gecko) draw.io/26.0.9 Chrome/128.0.6613.186 Electron/32.2.5 Safari/537.36" version="26.0.9" pages="2">
  <diagram id="nsBFS3lWMPKE7rodPror" name="Telas">
    <mxGraphModel dx="4756" dy="2338" grid="0" gridSize="10" guides="1" tooltips="1" connect="1" arrows="1" fold="1" page="0" pageScale="1" pageWidth="750" pageHeight="1000" math="0" shadow="0">
      <root>
        <mxCell id="0" />
        <mxCell id="1" parent="0" />
        <mxCell id="QkHefzYpT9r8nYpWrcle-26" value="Tela Inicial" style="swimlane;whiteSpace=wrap;html=1;fontFamily=Helvetica;fontSize=12;fontColor=default;labelBackgroundColor=default;" vertex="1" parent="1">
          <mxGeometry x="-30" y="-355" width="901" height="759" as="geometry" />
        </mxCell>
        <mxCell id="QkHefzYpT9r8nYpWrcle-1" value="" style="swimlane;startSize=0;" vertex="1" parent="QkHefzYpT9r8nYpWrcle-26">
          <mxGeometry x="99" y="73.5" width="320" height="612" as="geometry" />
        </mxCell>
        <mxCell id="QkHefzYpT9r8nYpWrcle-2" value="AppBar" style="rounded=0;whiteSpace=wrap;html=1;" vertex="1" parent="QkHefzYpT9r8nYpWrcle-1">
          <mxGeometry x="7" y="18" width="306" height="39" as="geometry" />
        </mxCell>
        <mxCell id="QkHefzYpT9r8nYpWrcle-4" value="" style="swimlane;startSize=0;" vertex="1" parent="QkHefzYpT9r8nYpWrcle-1">
          <mxGeometry x="7" y="62" width="305" height="538" as="geometry" />
        </mxCell>
        <mxCell id="QkHefzYpT9r8nYpWrcle-6" value="Text" style="rounded=0;whiteSpace=wrap;html=1;" vertex="1" parent="QkHefzYpT9r8nYpWrcle-4">
          <mxGeometry x="6.5" y="81" width="293" height="31" as="geometry" />
        </mxCell>
        <mxCell id="QkHefzYpT9r8nYpWrcle-12" value="Row" style="rounded=0;whiteSpace=wrap;html=1;" vertex="1" parent="QkHefzYpT9r8nYpWrcle-4">
          <mxGeometry x="6" y="387" width="293" height="65" as="geometry" />
        </mxCell>
        <mxCell id="QkHefzYpT9r8nYpWrcle-13" value="" style="group" vertex="1" connectable="0" parent="QkHefzYpT9r8nYpWrcle-4">
          <mxGeometry x="6" y="120" width="293" height="260" as="geometry" />
        </mxCell>
        <mxCell id="QkHefzYpT9r8nYpWrcle-7" value="" style="rounded=0;whiteSpace=wrap;html=1;" vertex="1" parent="QkHefzYpT9r8nYpWrcle-13">
          <mxGeometry width="293" height="260" as="geometry" />
        </mxCell>
        <mxCell id="QkHefzYpT9r8nYpWrcle-10" value="Image" style="text;html=1;align=center;verticalAlign=middle;resizable=0;points=[];autosize=1;strokeColor=none;fillColor=none;fontSize=12;fontFamily=Helvetica;fontColor=default;labelBackgroundColor=default;" vertex="1" parent="QkHefzYpT9r8nYpWrcle-13">
          <mxGeometry x="121.5" y="117" width="51" height="26" as="geometry" />
        </mxCell>
        <mxCell id="QkHefzYpT9r8nYpWrcle-8" style="edgeStyle=none;curved=1;rounded=0;orthogonalLoop=1;jettySize=auto;html=1;exitX=0;exitY=0;exitDx=0;exitDy=0;entryX=1;entryY=1;entryDx=0;entryDy=0;fontSize=12;startSize=8;endSize=8;endArrow=none;startFill=0;" edge="1" parent="QkHefzYpT9r8nYpWrcle-13" source="QkHefzYpT9r8nYpWrcle-7" target="QkHefzYpT9r8nYpWrcle-7">
          <mxGeometry relative="1" as="geometry" />
        </mxCell>
        <mxCell id="QkHefzYpT9r8nYpWrcle-9" style="edgeStyle=none;shape=connector;curved=1;rounded=0;orthogonalLoop=1;jettySize=auto;html=1;exitX=1;exitY=0;exitDx=0;exitDy=0;entryX=0;entryY=1;entryDx=0;entryDy=0;strokeColor=default;align=center;verticalAlign=middle;fontFamily=Helvetica;fontSize=12;fontColor=default;labelBackgroundColor=default;startFill=0;startSize=8;endArrow=none;endSize=8;" edge="1" parent="QkHefzYpT9r8nYpWrcle-13" source="QkHefzYpT9r8nYpWrcle-7" target="QkHefzYpT9r8nYpWrcle-7">
          <mxGeometry relative="1" as="geometry" />
        </mxCell>
        <mxCell id="QkHefzYpT9r8nYpWrcle-5" style="edgeStyle=none;curved=1;rounded=0;orthogonalLoop=1;jettySize=auto;html=1;exitX=1;exitY=0.25;exitDx=0;exitDy=0;fontSize=12;startSize=8;endSize=8;" edge="1" parent="QkHefzYpT9r8nYpWrcle-1" source="QkHefzYpT9r8nYpWrcle-4" target="QkHefzYpT9r8nYpWrcle-4">
          <mxGeometry relative="1" as="geometry" />
        </mxCell>
        <mxCell id="QkHefzYpT9r8nYpWrcle-15" value="" style="swimlane;startSize=0;fontFamily=Helvetica;fontSize=12;fontColor=default;labelBackgroundColor=default;rotation=0;" vertex="1" parent="QkHefzYpT9r8nYpWrcle-26">
          <mxGeometry x="509" y="522.5" width="293" height="65" as="geometry" />
        </mxCell>
        <mxCell id="QkHefzYpT9r8nYpWrcle-19" value="" style="group" vertex="1" connectable="0" parent="QkHefzYpT9r8nYpWrcle-15">
          <mxGeometry x="20" y="11" width="55" height="43" as="geometry" />
        </mxCell>
        <mxCell id="QkHefzYpT9r8nYpWrcle-18" value="" style="rounded=1;whiteSpace=wrap;html=1;fontFamily=Helvetica;fontSize=12;fontColor=default;labelBackgroundColor=default;" vertex="1" parent="QkHefzYpT9r8nYpWrcle-19">
          <mxGeometry width="55" height="43" as="geometry" />
        </mxCell>
        <mxCell id="QkHefzYpT9r8nYpWrcle-16" value="" style="sketch=0;html=1;aspect=fixed;shadow=0;verticalAlign=top;labelPosition=center;verticalLabelPosition=bottom;shape=mxgraph.gcp2.view_list;fontFamily=Helvetica;fontSize=12;labelBackgroundColor=default;" vertex="1" parent="QkHefzYpT9r8nYpWrcle-19">
          <mxGeometry x="16.569999999999936" y="8" width="21.87" height="27" as="geometry" />
        </mxCell>
        <mxCell id="QkHefzYpT9r8nYpWrcle-20" value="" style="group" vertex="1" connectable="0" parent="QkHefzYpT9r8nYpWrcle-15">
          <mxGeometry x="222" y="11" width="55" height="43" as="geometry" />
        </mxCell>
        <mxCell id="QkHefzYpT9r8nYpWrcle-21" value="" style="rounded=1;whiteSpace=wrap;html=1;fontFamily=Helvetica;fontSize=12;fontColor=default;labelBackgroundColor=default;" vertex="1" parent="QkHefzYpT9r8nYpWrcle-20">
          <mxGeometry width="55" height="43" as="geometry" />
        </mxCell>
        <mxCell id="QkHefzYpT9r8nYpWrcle-23" value="" style="html=1;verticalLabelPosition=bottom;align=center;labelBackgroundColor=#ffffff;verticalAlign=top;strokeWidth=2;shadow=0;dashed=0;shape=mxgraph.ios7.icons.trophy;fontFamily=Helvetica;fontSize=12;" vertex="1" parent="QkHefzYpT9r8nYpWrcle-20">
          <mxGeometry x="16.100000000000023" y="9.5" width="22.8" height="24" as="geometry" />
        </mxCell>
        <mxCell id="QkHefzYpT9r8nYpWrcle-24" value="INICIAR" style="rounded=1;whiteSpace=wrap;html=1;fontFamily=Helvetica;fontSize=12;fontColor=default;labelBackgroundColor=default;" vertex="1" parent="QkHefzYpT9r8nYpWrcle-15">
          <mxGeometry x="81" y="11" width="136" height="43" as="geometry" />
        </mxCell>
        <mxCell id="QkHefzYpT9r8nYpWrcle-25" style="edgeStyle=none;shape=connector;curved=1;rounded=0;orthogonalLoop=1;jettySize=auto;html=1;strokeColor=default;align=center;verticalAlign=middle;fontFamily=Helvetica;fontSize=12;fontColor=default;labelBackgroundColor=default;startFill=0;startSize=8;endArrow=classic;endSize=8;endFill=1;dashed=1;" edge="1" parent="QkHefzYpT9r8nYpWrcle-26" source="QkHefzYpT9r8nYpWrcle-12" target="QkHefzYpT9r8nYpWrcle-15">
          <mxGeometry relative="1" as="geometry" />
        </mxCell>
        <mxCell id="QkHefzYpT9r8nYpWrcle-27" value="QuestionÃ¡rios" style="swimlane;whiteSpace=wrap;html=1;fontFamily=Helvetica;fontSize=12;fontColor=default;labelBackgroundColor=default;" vertex="1" parent="1">
          <mxGeometry x="-1326" y="-355" width="1225" height="759" as="geometry" />
        </mxCell>
        <mxCell id="QkHefzYpT9r8nYpWrcle-28" value="" style="swimlane;startSize=0;" vertex="1" parent="QkHefzYpT9r8nYpWrcle-27">
          <mxGeometry x="99" y="73.5" width="320" height="612" as="geometry" />
        </mxCell>
        <mxCell id="QkHefzYpT9r8nYpWrcle-29" value="AppBar" style="rounded=0;whiteSpace=wrap;html=1;" vertex="1" parent="QkHefzYpT9r8nYpWrcle-28">
          <mxGeometry x="7" y="18" width="306" height="39" as="geometry" />
        </mxCell>
        <mxCell id="QkHefzYpT9r8nYpWrcle-30" value="" style="swimlane;startSize=0;" vertex="1" parent="QkHefzYpT9r8nYpWrcle-28">
          <mxGeometry x="7" y="62" width="305" height="538" as="geometry" />
        </mxCell>
        <mxCell id="QkHefzYpT9r8nYpWrcle-32" value="List" style="rounded=0;whiteSpace=wrap;html=1;" vertex="1" parent="QkHefzYpT9r8nYpWrcle-30">
          <mxGeometry x="6" y="53" width="293" height="469" as="geometry" />
        </mxCell>
        <mxCell id="QkHefzYpT9r8nYpWrcle-111" value="Text" style="rounded=0;whiteSpace=wrap;html=1;" vertex="1" parent="QkHefzYpT9r8nYpWrcle-30">
          <mxGeometry x="6" y="17.5" width="293" height="31" as="geometry" />
        </mxCell>
        <mxCell id="QkHefzYpT9r8nYpWrcle-38" style="edgeStyle=none;curved=1;rounded=0;orthogonalLoop=1;jettySize=auto;html=1;exitX=1;exitY=0.25;exitDx=0;exitDy=0;fontSize=12;startSize=8;endSize=8;" edge="1" parent="QkHefzYpT9r8nYpWrcle-28" source="QkHefzYpT9r8nYpWrcle-30" target="QkHefzYpT9r8nYpWrcle-30">
          <mxGeometry relative="1" as="geometry" />
        </mxCell>
        <mxCell id="QkHefzYpT9r8nYpWrcle-39" value="" style="swimlane;startSize=0;fontFamily=Helvetica;fontSize=12;fontColor=default;labelBackgroundColor=default;rotation=0;" vertex="1" parent="QkHefzYpT9r8nYpWrcle-27">
          <mxGeometry x="509" y="186" width="293" height="472" as="geometry" />
        </mxCell>
        <mxCell id="QkHefzYpT9r8nYpWrcle-57" value="" style="group" vertex="1" connectable="0" parent="QkHefzYpT9r8nYpWrcle-39">
          <mxGeometry x="11" y="22" width="254" height="388" as="geometry" />
        </mxCell>
        <mxCell id="QkHefzYpT9r8nYpWrcle-43" value="" style="group" vertex="1" connectable="0" parent="QkHefzYpT9r8nYpWrcle-57">
          <mxGeometry width="254" height="91" as="geometry" />
        </mxCell>
        <mxCell id="QkHefzYpT9r8nYpWrcle-44" value="Card" style="rounded=1;whiteSpace=wrap;html=1;fontFamily=Helvetica;fontSize=12;fontColor=default;labelBackgroundColor=default;" vertex="1" parent="QkHefzYpT9r8nYpWrcle-43">
          <mxGeometry width="254" height="91.00000000000001" as="geometry" />
        </mxCell>
        <mxCell id="QkHefzYpT9r8nYpWrcle-48" value="" style="group" vertex="1" connectable="0" parent="QkHefzYpT9r8nYpWrcle-57">
          <mxGeometry y="99" width="254" height="91" as="geometry" />
        </mxCell>
        <mxCell id="QkHefzYpT9r8nYpWrcle-49" value="Card" style="rounded=1;whiteSpace=wrap;html=1;fontFamily=Helvetica;fontSize=12;fontColor=default;labelBackgroundColor=default;" vertex="1" parent="QkHefzYpT9r8nYpWrcle-48">
          <mxGeometry width="254" height="91.00000000000001" as="geometry" />
        </mxCell>
        <mxCell id="QkHefzYpT9r8nYpWrcle-50" value="" style="group" vertex="1" connectable="0" parent="QkHefzYpT9r8nYpWrcle-57">
          <mxGeometry y="198" width="254" height="91" as="geometry" />
        </mxCell>
        <mxCell id="QkHefzYpT9r8nYpWrcle-51" value="Card" style="rounded=1;whiteSpace=wrap;html=1;fontFamily=Helvetica;fontSize=12;fontColor=default;labelBackgroundColor=default;" vertex="1" parent="QkHefzYpT9r8nYpWrcle-50">
          <mxGeometry width="254" height="91.00000000000001" as="geometry" />
        </mxCell>
        <mxCell id="QkHefzYpT9r8nYpWrcle-52" value="" style="group" vertex="1" connectable="0" parent="QkHefzYpT9r8nYpWrcle-57">
          <mxGeometry y="297" width="254" height="91" as="geometry" />
        </mxCell>
        <mxCell id="QkHefzYpT9r8nYpWrcle-53" value="Card" style="rounded=1;whiteSpace=wrap;html=1;fontFamily=Helvetica;fontSize=12;fontColor=default;labelBackgroundColor=default;" vertex="1" parent="QkHefzYpT9r8nYpWrcle-52">
          <mxGeometry width="254" height="91.00000000000001" as="geometry" />
        </mxCell>
        <mxCell id="QkHefzYpT9r8nYpWrcle-60" value="" style="group" vertex="1" connectable="0" parent="QkHefzYpT9r8nYpWrcle-39">
          <mxGeometry x="277" width="16" height="491" as="geometry" />
        </mxCell>
        <mxCell id="QkHefzYpT9r8nYpWrcle-58" value="" style="rounded=0;whiteSpace=wrap;html=1;fontFamily=Helvetica;fontSize=12;fontColor=default;labelBackgroundColor=default;" vertex="1" parent="QkHefzYpT9r8nYpWrcle-60">
          <mxGeometry width="16" height="491" as="geometry" />
        </mxCell>
        <mxCell id="QkHefzYpT9r8nYpWrcle-59" value="" style="rounded=0;whiteSpace=wrap;html=1;fontFamily=Helvetica;fontSize=12;fontColor=#333333;labelBackgroundColor=default;fillColor=#f5f5f5;strokeColor=#666666;" vertex="1" parent="QkHefzYpT9r8nYpWrcle-60">
          <mxGeometry width="16" height="66" as="geometry" />
        </mxCell>
        <mxCell id="QkHefzYpT9r8nYpWrcle-47" style="edgeStyle=none;shape=connector;curved=1;rounded=0;orthogonalLoop=1;jettySize=auto;html=1;strokeColor=default;align=center;verticalAlign=middle;fontFamily=Helvetica;fontSize=12;fontColor=default;labelBackgroundColor=default;startFill=0;startSize=8;endArrow=classic;endSize=8;endFill=1;dashed=1;" edge="1" parent="QkHefzYpT9r8nYpWrcle-27" source="QkHefzYpT9r8nYpWrcle-32" target="QkHefzYpT9r8nYpWrcle-39">
          <mxGeometry relative="1" as="geometry" />
        </mxCell>
        <mxCell id="QkHefzYpT9r8nYpWrcle-61" value="" style="swimlane;startSize=0;fontFamily=Helvetica;fontSize=12;fontColor=default;labelBackgroundColor=default;rotation=0;" vertex="1" parent="QkHefzYpT9r8nYpWrcle-27">
          <mxGeometry x="887" y="208" width="254" height="91" as="geometry" />
        </mxCell>
        <mxCell id="QkHefzYpT9r8nYpWrcle-63" value="" style="group" vertex="1" connectable="0" parent="QkHefzYpT9r8nYpWrcle-61">
          <mxGeometry x="15" y="12.5" width="74.38" height="66" as="geometry" />
        </mxCell>
        <mxCell id="QkHefzYpT9r8nYpWrcle-64" value="" style="rounded=0;whiteSpace=wrap;html=1;" vertex="1" parent="QkHefzYpT9r8nYpWrcle-63">
          <mxGeometry width="74.38" height="66" as="geometry" />
        </mxCell>
        <mxCell id="QkHefzYpT9r8nYpWrcle-66" style="edgeStyle=none;curved=1;rounded=0;orthogonalLoop=1;jettySize=auto;html=1;exitX=0;exitY=0;exitDx=0;exitDy=0;entryX=1;entryY=1;entryDx=0;entryDy=0;fontSize=12;startSize=8;endSize=8;endArrow=none;startFill=0;" edge="1" parent="QkHefzYpT9r8nYpWrcle-63" source="QkHefzYpT9r8nYpWrcle-64" target="QkHefzYpT9r8nYpWrcle-64">
          <mxGeometry relative="1" as="geometry" />
        </mxCell>
        <mxCell id="QkHefzYpT9r8nYpWrcle-67" style="edgeStyle=none;shape=connector;curved=1;rounded=0;orthogonalLoop=1;jettySize=auto;html=1;exitX=1;exitY=0;exitDx=0;exitDy=0;entryX=0;entryY=1;entryDx=0;entryDy=0;strokeColor=default;align=center;verticalAlign=middle;fontFamily=Helvetica;fontSize=12;fontColor=default;labelBackgroundColor=default;startFill=0;startSize=8;endArrow=none;endSize=8;" edge="1" parent="QkHefzYpT9r8nYpWrcle-63" source="QkHefzYpT9r8nYpWrcle-64" target="QkHefzYpT9r8nYpWrcle-64">
          <mxGeometry relative="1" as="geometry" />
        </mxCell>
        <mxCell id="QkHefzYpT9r8nYpWrcle-65" value="Image" style="text;html=1;align=center;verticalAlign=middle;resizable=0;points=[];autosize=1;strokeColor=none;fillColor=none;fontSize=12;fontFamily=Helvetica;fontColor=default;labelBackgroundColor=default;" vertex="1" parent="QkHefzYpT9r8nYpWrcle-63">
          <mxGeometry x="11.69276008833567" y="20.00366589327146" width="51" height="26" as="geometry" />
        </mxCell>
        <mxCell id="QkHefzYpT9r8nYpWrcle-69" value="Text" style="rounded=0;whiteSpace=wrap;html=1;fontFamily=Helvetica;fontSize=12;fontColor=default;labelBackgroundColor=default;" vertex="1" parent="QkHefzYpT9r8nYpWrcle-61">
          <mxGeometry x="96" y="12.5" width="151" height="35.5" as="geometry" />
        </mxCell>
        <mxCell id="QkHefzYpT9r8nYpWrcle-71" value="Button" style="rounded=1;whiteSpace=wrap;html=1;fontFamily=Helvetica;fontSize=12;fontColor=default;labelBackgroundColor=default;" vertex="1" parent="QkHefzYpT9r8nYpWrcle-61">
          <mxGeometry x="185" y="57" width="62" height="21.5" as="geometry" />
        </mxCell>
        <mxCell id="QkHefzYpT9r8nYpWrcle-62" style="edgeStyle=none;shape=connector;curved=1;rounded=0;orthogonalLoop=1;jettySize=auto;html=1;strokeColor=default;align=center;verticalAlign=middle;fontFamily=Helvetica;fontSize=12;fontColor=default;labelBackgroundColor=default;startFill=0;startSize=8;endArrow=classic;endSize=8;dashed=1;endFill=1;" edge="1" parent="QkHefzYpT9r8nYpWrcle-27" source="QkHefzYpT9r8nYpWrcle-44" target="QkHefzYpT9r8nYpWrcle-61">
          <mxGeometry relative="1" as="geometry" />
        </mxCell>
        <mxCell id="QkHefzYpT9r8nYpWrcle-72" style="edgeStyle=orthogonalEdgeStyle;shape=connector;rounded=0;orthogonalLoop=1;jettySize=auto;html=1;strokeColor=default;align=center;verticalAlign=middle;fontFamily=Helvetica;fontSize=12;fontColor=default;labelBackgroundColor=default;startFill=0;startSize=8;endArrow=classic;endSize=8;endFill=1;" edge="1" parent="1" source="QkHefzYpT9r8nYpWrcle-18" target="QkHefzYpT9r8nYpWrcle-27">
          <mxGeometry relative="1" as="geometry">
            <Array as="points">
              <mxPoint x="527" y="592" />
              <mxPoint x="-713" y="592" />
            </Array>
          </mxGeometry>
        </mxCell>
        <mxCell id="QkHefzYpT9r8nYpWrcle-73" value="ClassificaÃ§Ã£o" style="swimlane;whiteSpace=wrap;html=1;fontFamily=Helvetica;fontSize=12;fontColor=default;labelBackgroundColor=default;" vertex="1" parent="1">
          <mxGeometry x="942" y="-355" width="1225" height="759" as="geometry" />
        </mxCell>
        <mxCell id="QkHefzYpT9r8nYpWrcle-74" value="" style="swimlane;startSize=0;" vertex="1" parent="QkHefzYpT9r8nYpWrcle-73">
          <mxGeometry x="99" y="73.5" width="320" height="612" as="geometry" />
        </mxCell>
        <mxCell id="QkHefzYpT9r8nYpWrcle-75" value="AppBar" style="rounded=0;whiteSpace=wrap;html=1;" vertex="1" parent="QkHefzYpT9r8nYpWrcle-74">
          <mxGeometry x="7" y="18" width="306" height="39" as="geometry" />
        </mxCell>
        <mxCell id="QkHefzYpT9r8nYpWrcle-76" value="" style="swimlane;startSize=0;" vertex="1" parent="QkHefzYpT9r8nYpWrcle-74">
          <mxGeometry x="7" y="62" width="305" height="538" as="geometry" />
        </mxCell>
        <mxCell id="QkHefzYpT9r8nYpWrcle-77" value="List" style="rounded=0;whiteSpace=wrap;html=1;" vertex="1" parent="QkHefzYpT9r8nYpWrcle-76">
          <mxGeometry x="6" y="58" width="293" height="464" as="geometry" />
        </mxCell>
        <mxCell id="QkHefzYpT9r8nYpWrcle-112" value="Text" style="rounded=0;whiteSpace=wrap;html=1;" vertex="1" parent="QkHefzYpT9r8nYpWrcle-76">
          <mxGeometry x="6.5" y="19.5" width="293" height="31" as="geometry" />
        </mxCell>
        <mxCell id="QkHefzYpT9r8nYpWrcle-78" style="edgeStyle=none;curved=1;rounded=0;orthogonalLoop=1;jettySize=auto;html=1;exitX=1;exitY=0.25;exitDx=0;exitDy=0;fontSize=12;startSize=8;endSize=8;" edge="1" parent="QkHefzYpT9r8nYpWrcle-74" source="QkHefzYpT9r8nYpWrcle-76" target="QkHefzYpT9r8nYpWrcle-76">
          <mxGeometry relative="1" as="geometry" />
        </mxCell>
        <mxCell id="QkHefzYpT9r8nYpWrcle-79" value="" style="swimlane;startSize=0;fontFamily=Helvetica;fontSize=12;fontColor=default;labelBackgroundColor=default;rotation=0;" vertex="1" parent="QkHefzYpT9r8nYpWrcle-73">
          <mxGeometry x="509" y="195" width="293" height="463" as="geometry" />
        </mxCell>
        <mxCell id="QkHefzYpT9r8nYpWrcle-80" value="" style="group" vertex="1" connectable="0" parent="QkHefzYpT9r8nYpWrcle-79">
          <mxGeometry x="11" y="22" width="254" height="388" as="geometry" />
        </mxCell>
        <mxCell id="QkHefzYpT9r8nYpWrcle-81" value="" style="group" vertex="1" connectable="0" parent="QkHefzYpT9r8nYpWrcle-80">
          <mxGeometry width="254" height="91" as="geometry" />
        </mxCell>
        <mxCell id="QkHefzYpT9r8nYpWrcle-82" value="Card" style="rounded=1;whiteSpace=wrap;html=1;fontFamily=Helvetica;fontSize=12;fontColor=default;labelBackgroundColor=default;" vertex="1" parent="QkHefzYpT9r8nYpWrcle-81">
          <mxGeometry width="254" height="91.00000000000001" as="geometry" />
        </mxCell>
        <mxCell id="QkHefzYpT9r8nYpWrcle-83" value="" style="group" vertex="1" connectable="0" parent="QkHefzYpT9r8nYpWrcle-80">
          <mxGeometry y="99" width="254" height="91" as="geometry" />
        </mxCell>
        <mxCell id="QkHefzYpT9r8nYpWrcle-84" value="Card" style="rounded=1;whiteSpace=wrap;html=1;fontFamily=Helvetica;fontSize=12;fontColor=default;labelBackgroundColor=default;" vertex="1" parent="QkHefzYpT9r8nYpWrcle-83">
          <mxGeometry width="254" height="91.00000000000001" as="geometry" />
        </mxCell>
        <mxCell id="QkHefzYpT9r8nYpWrcle-85" value="" style="group" vertex="1" connectable="0" parent="QkHefzYpT9r8nYpWrcle-80">
          <mxGeometry y="198" width="254" height="91" as="geometry" />
        </mxCell>
        <mxCell id="QkHefzYpT9r8nYpWrcle-86" value="Card" style="rounded=1;whiteSpace=wrap;html=1;fontFamily=Helvetica;fontSize=12;fontColor=default;labelBackgroundColor=default;" vertex="1" parent="QkHefzYpT9r8nYpWrcle-85">
          <mxGeometry width="254" height="91.00000000000001" as="geometry" />
        </mxCell>
        <mxCell id="QkHefzYpT9r8nYpWrcle-87" value="" style="group" vertex="1" connectable="0" parent="QkHefzYpT9r8nYpWrcle-80">
          <mxGeometry y="297" width="254" height="91" as="geometry" />
        </mxCell>
        <mxCell id="QkHefzYpT9r8nYpWrcle-88" value="Card" style="rounded=1;whiteSpace=wrap;html=1;fontFamily=Helvetica;fontSize=12;fontColor=default;labelBackgroundColor=default;" vertex="1" parent="QkHefzYpT9r8nYpWrcle-87">
          <mxGeometry width="254" height="91.00000000000001" as="geometry" />
        </mxCell>
        <mxCell id="QkHefzYpT9r8nYpWrcle-89" value="" style="group" vertex="1" connectable="0" parent="QkHefzYpT9r8nYpWrcle-79">
          <mxGeometry x="277" width="16" height="491" as="geometry" />
        </mxCell>
        <mxCell id="QkHefzYpT9r8nYpWrcle-90" value="" style="rounded=0;whiteSpace=wrap;html=1;fontFamily=Helvetica;fontSize=12;fontColor=default;labelBackgroundColor=default;" vertex="1" parent="QkHefzYpT9r8nYpWrcle-89">
          <mxGeometry width="16" height="491" as="geometry" />
        </mxCell>
        <mxCell id="QkHefzYpT9r8nYpWrcle-91" value="" style="rounded=0;whiteSpace=wrap;html=1;fontFamily=Helvetica;fontSize=12;fontColor=#333333;labelBackgroundColor=default;fillColor=#f5f5f5;strokeColor=#666666;" vertex="1" parent="QkHefzYpT9r8nYpWrcle-89">
          <mxGeometry width="16" height="66" as="geometry" />
        </mxCell>
        <mxCell id="QkHefzYpT9r8nYpWrcle-92" style="edgeStyle=none;shape=connector;curved=1;rounded=0;orthogonalLoop=1;jettySize=auto;html=1;strokeColor=default;align=center;verticalAlign=middle;fontFamily=Helvetica;fontSize=12;fontColor=default;labelBackgroundColor=default;startFill=0;startSize=8;endArrow=classic;endSize=8;endFill=1;dashed=1;" edge="1" parent="QkHefzYpT9r8nYpWrcle-73" source="QkHefzYpT9r8nYpWrcle-77" target="QkHefzYpT9r8nYpWrcle-79">
          <mxGeometry relative="1" as="geometry" />
        </mxCell>
        <mxCell id="QkHefzYpT9r8nYpWrcle-93" value="" style="swimlane;startSize=0;fontFamily=Helvetica;fontSize=12;fontColor=default;labelBackgroundColor=default;rotation=0;" vertex="1" parent="QkHefzYpT9r8nYpWrcle-73">
          <mxGeometry x="888" y="217" width="254" height="91" as="geometry" />
        </mxCell>
        <mxCell id="QkHefzYpT9r8nYpWrcle-94" value="" style="group" vertex="1" connectable="0" parent="QkHefzYpT9r8nYpWrcle-93">
          <mxGeometry x="15" y="12.5" width="74.38" height="66" as="geometry" />
        </mxCell>
        <mxCell id="QkHefzYpT9r8nYpWrcle-95" value="" style="rounded=0;whiteSpace=wrap;html=1;" vertex="1" parent="QkHefzYpT9r8nYpWrcle-94">
          <mxGeometry width="74.38" height="66" as="geometry" />
        </mxCell>
        <mxCell id="QkHefzYpT9r8nYpWrcle-96" style="edgeStyle=none;curved=1;rounded=0;orthogonalLoop=1;jettySize=auto;html=1;exitX=0;exitY=0;exitDx=0;exitDy=0;entryX=1;entryY=1;entryDx=0;entryDy=0;fontSize=12;startSize=8;endSize=8;endArrow=none;startFill=0;" edge="1" parent="QkHefzYpT9r8nYpWrcle-94" source="QkHefzYpT9r8nYpWrcle-95" target="QkHefzYpT9r8nYpWrcle-95">
          <mxGeometry relative="1" as="geometry" />
        </mxCell>
        <mxCell id="QkHefzYpT9r8nYpWrcle-97" style="edgeStyle=none;shape=connector;curved=1;rounded=0;orthogonalLoop=1;jettySize=auto;html=1;exitX=1;exitY=0;exitDx=0;exitDy=0;entryX=0;entryY=1;entryDx=0;entryDy=0;strokeColor=default;align=center;verticalAlign=middle;fontFamily=Helvetica;fontSize=12;fontColor=default;labelBackgroundColor=default;startFill=0;startSize=8;endArrow=none;endSize=8;" edge="1" parent="QkHefzYpT9r8nYpWrcle-94" source="QkHefzYpT9r8nYpWrcle-95" target="QkHefzYpT9r8nYpWrcle-95">
          <mxGeometry relative="1" as="geometry" />
        </mxCell>
        <mxCell id="QkHefzYpT9r8nYpWrcle-98" value="Image" style="text;html=1;align=center;verticalAlign=middle;resizable=0;points=[];autosize=1;strokeColor=none;fillColor=none;fontSize=12;fontFamily=Helvetica;fontColor=default;labelBackgroundColor=default;" vertex="1" parent="QkHefzYpT9r8nYpWrcle-94">
          <mxGeometry x="11.69276008833567" y="20.00366589327146" width="51" height="26" as="geometry" />
        </mxCell>
        <mxCell id="QkHefzYpT9r8nYpWrcle-99" value="Text" style="rounded=0;whiteSpace=wrap;html=1;fontFamily=Helvetica;fontSize=12;fontColor=default;labelBackgroundColor=default;" vertex="1" parent="QkHefzYpT9r8nYpWrcle-93">
          <mxGeometry x="96" y="12.5" width="151" height="35.5" as="geometry" />
        </mxCell>
        <mxCell id="QkHefzYpT9r8nYpWrcle-102" value="" style="rounded=0;whiteSpace=wrap;html=1;fontFamily=Helvetica;fontSize=12;fontColor=default;labelBackgroundColor=default;" vertex="1" parent="QkHefzYpT9r8nYpWrcle-93">
          <mxGeometry x="96" y="51" width="32" height="27" as="geometry" />
        </mxCell>
        <mxCell id="QkHefzYpT9r8nYpWrcle-103" value="Text" style="rounded=0;whiteSpace=wrap;html=1;fontFamily=Helvetica;fontSize=12;fontColor=default;labelBackgroundColor=default;" vertex="1" parent="QkHefzYpT9r8nYpWrcle-93">
          <mxGeometry x="132" y="51" width="32" height="27" as="geometry" />
        </mxCell>
        <mxCell id="QkHefzYpT9r8nYpWrcle-104" value="" style="rounded=0;whiteSpace=wrap;html=1;fontFamily=Helvetica;fontSize=12;fontColor=default;labelBackgroundColor=default;" vertex="1" parent="QkHefzYpT9r8nYpWrcle-93">
          <mxGeometry x="179" y="51" width="32" height="27" as="geometry" />
        </mxCell>
        <mxCell id="QkHefzYpT9r8nYpWrcle-105" value="Text" style="rounded=0;whiteSpace=wrap;html=1;fontFamily=Helvetica;fontSize=12;fontColor=default;labelBackgroundColor=default;" vertex="1" parent="QkHefzYpT9r8nYpWrcle-93">
          <mxGeometry x="215" y="51" width="32" height="27" as="geometry" />
        </mxCell>
        <mxCell id="QkHefzYpT9r8nYpWrcle-106" value="" style="html=1;verticalLabelPosition=bottom;labelBackgroundColor=#ffffff;verticalAlign=top;shadow=0;dashed=0;strokeWidth=2;shape=mxgraph.ios7.misc.check;fontFamily=Helvetica;fontSize=12;" vertex="1" parent="QkHefzYpT9r8nYpWrcle-93">
          <mxGeometry x="104.18" y="58.25" width="15.63" height="12.5" as="geometry" />
        </mxCell>
        <mxCell id="QkHefzYpT9r8nYpWrcle-108" value="" style="shape=mxgraph.sysml.x;fontFamily=Helvetica;fontSize=12;labelBackgroundColor=default;strokeWidth=2;" vertex="1" parent="QkHefzYpT9r8nYpWrcle-93">
          <mxGeometry x="187" y="56.5" width="16" height="16" as="geometry" />
        </mxCell>
        <mxCell id="QkHefzYpT9r8nYpWrcle-101" style="edgeStyle=none;shape=connector;curved=1;rounded=0;orthogonalLoop=1;jettySize=auto;html=1;strokeColor=default;align=center;verticalAlign=middle;fontFamily=Helvetica;fontSize=12;fontColor=default;labelBackgroundColor=default;startFill=0;startSize=8;endArrow=classic;endSize=8;dashed=1;endFill=1;" edge="1" parent="QkHefzYpT9r8nYpWrcle-73" source="QkHefzYpT9r8nYpWrcle-82" target="QkHefzYpT9r8nYpWrcle-93">
          <mxGeometry relative="1" as="geometry" />
        </mxCell>
        <mxCell id="QkHefzYpT9r8nYpWrcle-110" style="edgeStyle=orthogonalEdgeStyle;shape=connector;rounded=0;orthogonalLoop=1;jettySize=auto;html=1;strokeColor=default;align=center;verticalAlign=middle;fontFamily=Helvetica;fontSize=12;fontColor=default;labelBackgroundColor=default;startFill=0;startSize=8;endArrow=classic;endSize=8;endFill=1;" edge="1" parent="1" source="QkHefzYpT9r8nYpWrcle-23" target="QkHefzYpT9r8nYpWrcle-73">
          <mxGeometry relative="1" as="geometry">
            <Array as="points">
              <mxPoint x="729" y="595" />
              <mxPoint x="1555" y="595" />
            </Array>
          </mxGeometry>
        </mxCell>
      </root>
    </mxGraphModel>
  </diagram>
  <diagram name="PÃ¡gina-1" id="-5UBW8LwATKlxL2UCiRb">
    <mxGraphModel dx="1961" dy="1117" grid="0" gridSize="10" guides="1" tooltips="1" connect="1" arrows="1" fold="1" page="0" pageScale="1" pageWidth="750" pageHeight="1000" math="0" shadow="0">
      <root>
        <mxCell id="0" />
        <mxCell id="1" parent="0" />
        <mxCell id="8iOKybxO2lYcBWb4EmSC-1" value="&lt;div style=&quot;color: #d4d4d4;background-color: #1e1e1e;font-family: Consolas, &#39;Courier New&#39;, monospace;font-weight: normal;font-size: 14px;line-height: 19px;white-space: pre;&quot;&gt;&lt;span style=&quot;color: #4ec9b0;&quot;&gt;MaterialApp&lt;/span&gt;&lt;/div&gt;" style="swimlane;whiteSpace=wrap;html=1;" vertex="1" parent="1">
          <mxGeometry x="-294.84000000000003" y="-125" width="419.16" height="759" as="geometry" />
        </mxCell>
        <mxCell id="8iOKybxO2lYcBWb4EmSC-2" value="&lt;div style=&quot;color: #d4d4d4;background-color: #1e1e1e;font-family: Consolas, &#39;Courier New&#39;, monospace;font-weight: normal;font-size: 14px;line-height: 19px;white-space: pre;&quot;&gt;&lt;span style=&quot;color: #4ec9b0;&quot;&gt;Scaffold&lt;/span&gt;&lt;/div&gt;" style="swimlane;whiteSpace=wrap;html=1;" vertex="1" parent="8iOKybxO2lYcBWb4EmSC-1">
          <mxGeometry x="-0.15999999999996817" y="24" width="419.32" height="688" as="geometry" />
        </mxCell>
        <mxCell id="8iOKybxO2lYcBWb4EmSC-3" value="&lt;div style=&quot;color: rgb(212, 212, 212); background-color: rgb(30, 30, 30); font-family: Consolas, &amp;quot;Courier New&amp;quot;, monospace; font-weight: normal; font-size: 14px; line-height: 19px; white-space: pre;&quot;&gt;&lt;div style=&quot;line-height: 19px;&quot;&gt;&lt;span style=&quot;color: #4ec9b0;&quot;&gt;AppBar&lt;/span&gt;&lt;/div&gt;&lt;/div&gt;" style="swimlane;whiteSpace=wrap;html=1;" vertex="1" parent="8iOKybxO2lYcBWb4EmSC-2">
          <mxGeometry y="20" width="419.32" height="63" as="geometry" />
        </mxCell>
        <mxCell id="8iOKybxO2lYcBWb4EmSC-4" value="&lt;div style=&quot;color: #d4d4d4;background-color: #1e1e1e;font-family: Consolas, &#39;Courier New&#39;, monospace;font-weight: normal;font-size: 14px;line-height: 19px;white-space: pre;&quot;&gt;&lt;span style=&quot;color: #4ec9b0;&quot;&gt;MaterialApp&lt;/span&gt;&lt;/div&gt;" style="swimlane;whiteSpace=wrap;html=1;" vertex="1" parent="1">
          <mxGeometry x="287" y="-125" width="419.16" height="759" as="geometry" />
        </mxCell>
        <mxCell id="8iOKybxO2lYcBWb4EmSC-5" value="&lt;div style=&quot;color: #d4d4d4;background-color: #1e1e1e;font-family: Consolas, &#39;Courier New&#39;, monospace;font-weight: normal;font-size: 14px;line-height: 19px;white-space: pre;&quot;&gt;&lt;span style=&quot;color: #4ec9b0;&quot;&gt;Scaffold&lt;/span&gt;&lt;/div&gt;" style="swimlane;whiteSpace=wrap;html=1;" vertex="1" parent="8iOKybxO2lYcBWb4EmSC-4">
          <mxGeometry x="-0.15999999999996817" y="24" width="419.32" height="688" as="geometry" />
        </mxCell>
        <mxCell id="8iOKybxO2lYcBWb4EmSC-6" value="&lt;div style=&quot;color: rgb(212, 212, 212); background-color: rgb(30, 30, 30); font-family: Consolas, &amp;quot;Courier New&amp;quot;, monospace; font-weight: normal; font-size: 14px; line-height: 19px; white-space: pre;&quot;&gt;&lt;div style=&quot;line-height: 19px;&quot;&gt;&lt;span style=&quot;color: #4ec9b0;&quot;&gt;AppBar&lt;/span&gt;&lt;/div&gt;&lt;/div&gt;" style="swimlane;whiteSpace=wrap;html=1;" vertex="1" parent="8iOKybxO2lYcBWb4EmSC-5">
          <mxGeometry y="20" width="419.32" height="63" as="geometry" />
        </mxCell>
        <mxCell id="8iOKybxO2lYcBWb4EmSC-16" value="App Perguntas Educacionais" style="rounded=0;whiteSpace=wrap;html=1;fontSize=19;" vertex="1" parent="8iOKybxO2lYcBWb4EmSC-6">
          <mxGeometry x="15.32" y="27" width="388.84" height="33" as="geometry" />
        </mxCell>
        <mxCell id="8iOKybxO2lYcBWb4EmSC-7" value="&lt;div style=&quot;color: rgb(212, 212, 212); background-color: rgb(30, 30, 30); font-family: Consolas, &amp;quot;Courier New&amp;quot;, monospace; font-weight: normal; font-size: 14px; line-height: 19px; white-space: pre;&quot;&gt;&lt;div style=&quot;line-height: 19px;&quot;&gt;&lt;span style=&quot;color: rgb(78, 201, 176);&quot;&gt;Center&lt;/span&gt;&lt;/div&gt;&lt;/div&gt;" style="swimlane;whiteSpace=wrap;html=1;startSize=23;" vertex="1" parent="8iOKybxO2lYcBWb4EmSC-5">
          <mxGeometry y="83" width="419.32" height="605" as="geometry">
            <mxRectangle y="83" width="81" height="31" as="alternateBounds" />
          </mxGeometry>
        </mxCell>
        <mxCell id="8iOKybxO2lYcBWb4EmSC-8" value="&lt;div style=&quot;color: rgb(212, 212, 212); background-color: rgb(30, 30, 30); font-family: Consolas, &amp;quot;Courier New&amp;quot;, monospace; font-weight: normal; font-size: 14px; line-height: 19px; white-space: pre;&quot;&gt;&lt;div style=&quot;line-height: 19px;&quot;&gt;&lt;span style=&quot;color: rgb(78, 201, 176);&quot;&gt;Column&lt;/span&gt;&lt;/div&gt;&lt;/div&gt;" style="swimlane;whiteSpace=wrap;html=1;startSize=23;" vertex="1" parent="8iOKybxO2lYcBWb4EmSC-7">
          <mxGeometry x="11.24" y="38" width="397" height="539" as="geometry" />
        </mxCell>
        <mxCell id="8iOKybxO2lYcBWb4EmSC-18" value="&lt;div style=&quot;color: rgb(212, 212, 212); background-color: rgb(30, 30, 30); font-family: Consolas, &amp;quot;Courier New&amp;quot;, monospace; font-weight: normal; font-size: 14px; line-height: 19px; white-space: pre;&quot;&gt;&lt;div style=&quot;line-height: 19px;&quot;&gt;&lt;span style=&quot;color: rgb(78, 201, 176);&quot;&gt;Image&lt;/span&gt;&lt;/div&gt;&lt;/div&gt;" style="swimlane;whiteSpace=wrap;html=1;startSize=23;" vertex="1" parent="8iOKybxO2lYcBWb4EmSC-8">
          <mxGeometry x="17.92" y="38" width="357" height="348" as="geometry" />
        </mxCell>
        <mxCell id="8iOKybxO2lYcBWb4EmSC-24" value="" style="outlineConnect=0;dashed=0;verticalLabelPosition=bottom;verticalAlign=top;align=center;html=1;shape=mxgraph.aws3.quicksight;strokeColor=#666666;fillColor=#f5f5f5;fontColor=#333333;" vertex="1" parent="8iOKybxO2lYcBWb4EmSC-18">
          <mxGeometry x="20" y="28" width="317" height="317" as="geometry" />
        </mxCell>
        <mxCell id="8iOKybxO2lYcBWb4EmSC-19" value="&lt;div style=&quot;color: rgb(212, 212, 212); background-color: rgb(30, 30, 30); font-family: Consolas, &amp;quot;Courier New&amp;quot;, monospace; font-weight: normal; font-size: 14px; line-height: 19px; white-space: pre;&quot;&gt;&lt;div style=&quot;line-height: 19px;&quot;&gt;&lt;span style=&quot;color: rgb(78, 201, 176);&quot;&gt;Row&lt;/span&gt;&lt;/div&gt;&lt;/div&gt;" style="swimlane;whiteSpace=wrap;html=1;startSize=23;" vertex="1" parent="8iOKybxO2lYcBWb4EmSC-8">
          <mxGeometry x="17.91999999999996" y="394" width="357" height="125" as="geometry" />
        </mxCell>
        <mxCell id="8iOKybxO2lYcBWb4EmSC-9" value="&lt;div style=&quot;color: rgb(212, 212, 212); background-color: rgb(30, 30, 30); font-family: Consolas, &amp;quot;Courier New&amp;quot;, monospace; font-weight: normal; font-size: 14px; line-height: 19px; white-space: pre;&quot;&gt;&lt;div style=&quot;line-height: 19px;&quot;&gt;&lt;span style=&quot;color: rgb(78, 201, 176);&quot;&gt;Button&lt;/span&gt;&lt;/div&gt;&lt;/div&gt;" style="swimlane;whiteSpace=wrap;html=1;startSize=23;" vertex="1" parent="8iOKybxO2lYcBWb4EmSC-19">
          <mxGeometry x="92.5" y="36" width="172" height="71" as="geometry" />
        </mxCell>
        <mxCell id="8iOKybxO2lYcBWb4EmSC-14" value="Iniciar" style="rounded=1;whiteSpace=wrap;html=1;fontSize=20;" vertex="1" parent="8iOKybxO2lYcBWb4EmSC-9">
          <mxGeometry x="15.11" y="27" width="141.78" height="34" as="geometry" />
        </mxCell>
        <mxCell id="8iOKybxO2lYcBWb4EmSC-10" value="&lt;div style=&quot;color: rgb(212, 212, 212); background-color: rgb(30, 30, 30); font-family: Consolas, &amp;quot;Courier New&amp;quot;, monospace; font-weight: normal; font-size: 14px; line-height: 19px; white-space: pre;&quot;&gt;&lt;div style=&quot;line-height: 19px;&quot;&gt;&lt;span style=&quot;color: rgb(78, 201, 176);&quot;&gt;IconBtn&lt;/span&gt;&lt;/div&gt;&lt;/div&gt;" style="swimlane;whiteSpace=wrap;html=1;startSize=23;" vertex="1" parent="8iOKybxO2lYcBWb4EmSC-19">
          <mxGeometry x="270" y="36" width="81" height="70" as="geometry" />
        </mxCell>
        <mxCell id="8iOKybxO2lYcBWb4EmSC-20" value="" style="html=1;verticalLabelPosition=bottom;align=center;labelBackgroundColor=#ffffff;verticalAlign=top;strokeWidth=2;strokeColor=#666666;shadow=0;dashed=0;shape=mxgraph.ios7.icons.trophy;fillColor=#f5f5f5;fontColor=#333333;" vertex="1" parent="8iOKybxO2lYcBWb4EmSC-10">
          <mxGeometry x="29.58" y="27" width="21.85" height="23" as="geometry" />
        </mxCell>
        <mxCell id="8iOKybxO2lYcBWb4EmSC-32" value="Ranking" style="text;html=1;align=center;verticalAlign=middle;resizable=0;points=[];autosize=1;strokeColor=none;fillColor=none;fontSize=8;" vertex="1" parent="8iOKybxO2lYcBWb4EmSC-10">
          <mxGeometry x="17.01" y="46" width="47" height="22" as="geometry" />
        </mxCell>
        <mxCell id="8iOKybxO2lYcBWb4EmSC-21" value="&lt;div style=&quot;color: rgb(212, 212, 212); background-color: rgb(30, 30, 30); font-family: Consolas, &amp;quot;Courier New&amp;quot;, monospace; font-weight: normal; font-size: 14px; line-height: 19px; white-space: pre;&quot;&gt;&lt;div style=&quot;line-height: 19px;&quot;&gt;&lt;span style=&quot;color: rgb(78, 201, 176);&quot;&gt;IconBtn&lt;/span&gt;&lt;/div&gt;&lt;/div&gt;" style="swimlane;whiteSpace=wrap;html=1;startSize=23;" vertex="1" parent="8iOKybxO2lYcBWb4EmSC-19">
          <mxGeometry x="6" y="36" width="81" height="71" as="geometry" />
        </mxCell>
        <mxCell id="8iOKybxO2lYcBWb4EmSC-23" value="" style="sketch=0;pointerEvents=1;shadow=0;dashed=0;html=1;strokeColor=#666666;fillColor=#f5f5f5;labelPosition=center;verticalLabelPosition=bottom;verticalAlign=top;outlineConnect=0;align=center;shape=mxgraph.office.communications.messages_queued;fontColor=#333333;" vertex="1" parent="8iOKybxO2lYcBWb4EmSC-21">
          <mxGeometry x="22.39" y="27" width="30.02" height="29" as="geometry" />
        </mxCell>
        <mxCell id="8iOKybxO2lYcBWb4EmSC-31" value="Lista" style="text;html=1;align=center;verticalAlign=middle;resizable=0;points=[];autosize=1;strokeColor=none;fillColor=none;fontSize=8;" vertex="1" parent="8iOKybxO2lYcBWb4EmSC-21">
          <mxGeometry x="19.899999999999977" y="49" width="35" height="22" as="geometry" />
        </mxCell>
        <mxCell id="8iOKybxO2lYcBWb4EmSC-28" value="&lt;div style=&quot;background-color: rgb(30, 30, 30); font-family: Consolas, &amp;quot;Courier New&amp;quot;, monospace; font-weight: normal; font-size: 14px; line-height: 19px; white-space: pre;&quot;&gt;&lt;font color=&quot;#4ec9b0&quot;&gt;IconBtn&lt;/font&gt;&lt;/div&gt;" style="swimlane;horizontal=0;whiteSpace=wrap;html=1;" vertex="1" parent="1">
          <mxGeometry x="876" y="317" width="200" height="200" as="geometry" />
        </mxCell>
        <mxCell id="8iOKybxO2lYcBWb4EmSC-29" value="&lt;div style=&quot;color: rgb(212, 212, 212); background-color: rgb(30, 30, 30); font-family: Consolas, &amp;quot;Courier New&amp;quot;, monospace; font-weight: normal; font-size: 14px; line-height: 19px; white-space: pre;&quot;&gt;&lt;div style=&quot;line-height: 19px;&quot;&gt;&lt;span style=&quot;color: rgb(78, 201, 176);&quot;&gt;Column&lt;/span&gt;&lt;/div&gt;&lt;/div&gt;" style="swimlane;whiteSpace=wrap;html=1;startSize=23;" vertex="1" parent="8iOKybxO2lYcBWb4EmSC-28">
          <mxGeometry x="27.16" y="4" width="165.84" height="189" as="geometry" />
        </mxCell>
        <mxCell id="8iOKybxO2lYcBWb4EmSC-33" value="Icon" style="rounded=0;whiteSpace=wrap;html=1;" vertex="1" parent="8iOKybxO2lYcBWb4EmSC-29">
          <mxGeometry x="42.92000000000007" y="36" width="80" height="66" as="geometry" />
        </mxCell>
        <mxCell id="8iOKybxO2lYcBWb4EmSC-34" value="Text" style="rounded=0;whiteSpace=wrap;html=1;" vertex="1" parent="8iOKybxO2lYcBWb4EmSC-29">
          <mxGeometry x="42.92000000000007" y="109" width="80" height="66" as="geometry" />
        </mxCell>
      </root>
    </mxGraphModel>
  </diagram>
</mxfile>
